<svg xmlns="http://www.w3.org/2000/svg" xmlns:xlink="http://www.w3.org/1999/xlink" fill="none" version="1.1" width="380.3808898925781" height="363.35443115234375" viewBox="0 0 380.3808898925781 363.35443115234375"><g><path d="M325.758,5.53179C326.479,6.14474,327.2,6.75769,327.943,7.38921C329.527,8.67836,331.112,9.96609,332.697,11.2525C333.877,12.2224,333.877,12.2224,335.081,13.212C338.44,15.9353,341.903,18.5079,345.381,21.0767C351.258,25.4576,357.086,29.8996,362.881,34.3892C363.975,35.2332,363.975,35.2332,365.092,36.0943C367.204,37.7364,369.296,39.4003,371.381,41.0767C372.506,41.9669,372.506,41.9669,373.654,42.875C374.379,43.4714,375.103,44.0678,375.85,44.6822C376.504,45.2135,377.158,45.7449,377.832,46.2923C379.798,48.5571,380.196,50.0995,380.381,53.0767C378.749,55.7188,377.756,57.2388,375.381,59.0767C372.068,59.8072,372.068,59.8072,368.381,60.2642C363.989,61.3003,361.253,62.8621,358.594,66.5665C354.818,73.2892,351.845,80.3948,348.888,87.5059C346.673,92.7546,344.229,97.8835,341.756,103.014C341.307,103.954,340.859,104.893,340.397,105.861C330.476,126.507,318.713,146.362,305.881,165.327C304.377,167.574,302.878,169.825,301.381,172.077C300.739,173.022,300.097,173.966,299.436,174.94C294.911,182.211,294.365,188.624,295.381,197.077C298.175,207.381,307.181,216.116,313.812,224.313C317.633,229.065,321.227,233.939,324.719,238.938C327.18,242.449,329.749,245.829,332.434,249.171C338.784,257.122,343.545,264.604,342.381,275.077C340.665,285.975,331.708,293.346,323.643,300.135C320.649,302.705,317.77,305.391,314.881,308.077C288.438,332.569,288.438,332.569,278.881,332.319C275.367,331.978,273.25,331.145,270.381,329.077C266.53,324.181,264.001,319.369,261.631,313.639C256.049,300.722,249.234,289.042,241.256,277.452C240.682,276.61,240.108,275.769,239.517,274.901C233.107,265.74,233.107,265.74,223.381,261.014C217.208,260.717,213.074,263.319,208.568,267.202C207.167,268.488,205.772,269.78,204.381,271.077C202.84,272.453,201.299,273.828,199.756,275.202C196.803,277.859,193.878,280.541,190.982,283.26C185.08,288.803,179.185,294.218,172.791,299.198C170.2,301.218,167.665,303.298,165.131,305.389C164.2,306.146,163.269,306.903,162.311,307.682C160.342,309.291,158.389,310.919,156.451,312.565C146.328,321.009,135.071,327.473,123.718,334.115C119.317,336.702,114.944,339.333,110.571,341.968C106.455,344.447,102.333,346.914,98.2105,349.381C96.384,350.476,94.5588,351.572,92.7349,352.67C90.3909,354.082,88.0428,355.487,85.6934,356.889C85.0289,357.292,84.3644,357.694,83.6797,358.109C75.553,362.934,68.1652,364.459,58.8692,362.565C46.5161,358.487,37.3458,346.119,28.8897,336.743C26.8689,334.511,24.8242,332.303,22.7776,330.095C21.2723,328.469,19.7737,326.838,18.2754,325.206C16.4011,323.168,14.5035,321.158,12.5801,319.167C-0.0449524,305.868,-0.0449524,305.868,0.00588989,296.702C1.38089,293.077,1.38089,293.077,2.98514,292.015C8.79614,289.608,14.6983,287.597,20.6709,285.628C37.4811,280.049,52.733,272.693,68.1021,263.938C71.0377,262.272,73.9902,260.643,76.9551,259.03C86.5915,253.72,95.0536,247.688,103.476,240.631C106.159,238.442,108.936,236.386,111.714,234.318C120.228,227.969,127.99,221.092,135.636,213.731C137.862,211.62,140.148,209.581,142.439,207.542C151.136,200.041,151.136,200.041,155.381,189.702C155.897,178.331,149.211,171.84,142.026,163.907C139.423,161.01,136.905,158.042,134.381,155.077C133.382,153.914,132.384,152.751,131.385,151.588C129.359,149.226,127.348,146.853,125.346,144.471C124.337,143.277,123.328,142.083,122.318,140.889C121.827,140.308,121.336,139.727,120.83,139.129C117.517,135.262,114.002,131.714,110.318,128.202C104.891,122.861,102.435,118.732,102.006,111.014C102.909,101.532,108.054,96.7688,114.381,90.0767C116.111,88.1608,117.84,86.244,119.568,84.3267C123.867,79.627,128.279,75.0438,132.756,70.5142C133.339,69.9183,133.922,69.3225,134.522,68.7085C140.172,63.0465,144.698,60.4236,152.756,59.8267C166.57,60.7794,175.763,74.5627,184.381,84.0767C185.147,84.9159,185.912,85.7551,186.701,86.6197C191.171,91.6038,191.171,91.6038,192.307,94.1626C193.215,96.2111,193.215,96.2111,195.195,96.9446C197.822,98.3053,199.401,99.9519,201.428,102.104C202.191,102.896,202.954,103.688,203.74,104.504C205.325,106.168,206.903,107.837,208.475,109.512C213.197,114.389,216.755,117.379,223.381,119.077C229.238,119.077,233.112,116.928,237.381,113.077C239.584,110.291,241.386,107.318,243.193,104.264C244.242,102.547,245.29,100.829,246.338,99.1119C246.852,98.2587,247.366,97.4055,247.895,96.5264C249.615,93.6902,251.392,90.8933,253.176,88.0972C267.39,65.7347,280.089,42.2733,290.641,17.9681C294.057,10.2491,297.145,4.33691,305.381,1.07671C313.106,-1.42885,319.652,0.594003,325.758,5.53179Z" fill="#EDFF00" fill-opacity="1" style="mix-blend-mode:passthrough"/></g></svg>