<svg xmlns="http://www.w3.org/2000/svg" xmlns:xlink="http://www.w3.org/1999/xlink" fill="none" version="1.1" width="682.197265625" height="189.131103515625" viewBox="0 0 682.197265625 189.131103515625"><g><g><path d="M645.1972045898438,103.00001238867188C651.7652045898437,112.85267338867187,648.3482045898438,133.63917338867188,648.3272045898437,145.08207338867186C648.3222045898438,148.62507338867186,648.3272045898437,152.16797338867187,648.3342045898437,155.71097338867187C648.3332045898437,158.00787338867187,648.3322045898437,160.30467338867186,648.3302045898438,162.60157338867188C648.3322045898437,163.63847338867188,648.3342045898437,164.67527338867188,648.3362045898438,165.74357338867188C648.3192045898438,171.31487338867186,648.1022045898437,176.8305733886719,647.6892045898437,182.38757338867188C647.5972045898437,183.63097338867186,647.5062045898437,184.87437338867187,647.4112045898437,186.15547338867188C647.3412045898438,187.0941733886719,647.2702045898437,188.03287338867187,647.1972045898438,188.9999733886719C588.2482045898437,189.02287338867188,529.2982045898437,189.04047338867187,470.34920458984374,189.05107338867188C463.39620458984376,189.05237338867187,456.44420458984376,189.05367338867188,449.49220458984377,189.05497338867187C448.80020458984376,189.05507338867187,448.10820458984375,189.05517338867188,447.39520458984373,189.05537338867188C424.9532045898437,189.05957338867188,402.5112045898437,189.06717338867188,380.06820458984373,189.0762733886719C356.36120458984374,189.08597338867187,332.65420458984374,189.09197338867187,308.94720458984375,189.09407338867186C294.73820458984375,189.09547338867188,280.52910458984377,189.09987338867188,266.31990458984376,189.1079733886719C256.58910458984377,189.1131733886719,246.85830458984375,189.1147733886719,237.12760458984374,189.11347338867188C231.50520458984374,189.11287338867186,225.88280458984374,189.1138733886719,220.26040458984374,189.11917338867187C215.12110458984375,189.1240733886719,209.98170458984376,189.12437338867187,204.84240458984374,189.1208733886719C202.97560458984375,189.12047338867188,201.10880458984374,189.12177338867187,199.24210458984373,189.12487338867186C196.71940458984375,189.12887338867188,194.19680458984374,189.1267733886719,191.67413458984376,189.12307338867186C190.56781458984375,189.12697338867187,190.56781458984375,189.12697338867187,189.43911458984374,189.1310733886719C184.42550458984374,189.11417338867187,184.42550458984374,189.11417338867187,182.19720458984375,187.9999733886719C182.81466658984374,184.9922733886719,183.77883458984374,182.77277338867188,185.41204458984376,180.17967338867186C185.85098458984376,179.47977338867187,186.28988458984375,178.77977338867186,186.74212458984374,178.05857338867187C187.20169458984375,177.33797338867186,187.66122458984375,176.61747338867187,188.13470458984375,175.8749733886719C188.59039458984375,175.14667338867187,189.04608458984376,174.41837338867188,189.51556458984376,173.66797338867187C192.91570458984376,168.28147338867188,192.91570458984376,168.28147338867188,195.19720458984375,165.9999733886719C198.20280458984377,165.7515733886719,198.20280458984377,165.7515733886719,202.15880458984375,165.75387338867188C202.88710458984374,165.7515733886719,203.61540458984376,165.74927338867187,204.36570458984374,165.74687338867187C206.83130458984374,165.74157338867187,209.29660458984375,165.75067338867188,211.76220458984375,165.7594733886719C213.53760458984374,165.75867338867187,215.31300458984376,165.75687338867186,217.08830458984374,165.75437338867187C221.98650458984375,165.74987338867186,226.88460458984375,165.75787338867187,231.78280458984375,165.7678733886719C237.05760458984375,165.7764733886719,242.33230458984374,165.77357338867188,247.60700458984377,165.77207338867188C256.75230458984373,165.77107338867188,265.89760458984375,165.77727338867186,275.0429045898437,165.78857338867186C288.26520458984373,165.8047733886719,301.48820458984375,165.8099733886719,314.71120458984376,165.81257338867186C336.1622045898438,165.81687338867187,357.61320458984375,165.83027338867188,379.0642045898437,165.8491733886719C399.90620458984375,165.86747338867187,420.74920458984377,165.88167338867189,441.59120458984376,165.89017338867188C442.87520458984375,165.89067338867187,444.15920458984374,165.89117338867186,445.4822045898438,165.89177338867188C451.9222045898438,165.89437338867188,458.36320458984375,165.89687338867188,464.80320458984374,165.89937338867188C518.2682045898438,165.92007338867188,571.7322045898438,165.95587338867188,625.1972045898438,165.9999733886719C625.1972045898438,150.15997338867186,625.1972045898438,134.31997338867188,625.1972045898438,117.99997338867188C625.8572045898438,117.99997338867188,626.5172045898437,117.99997338867188,627.1972045898438,117.99997338867188C627.4592045898437,117.44567338867188,627.7202045898438,116.89137338867188,627.9902045898438,116.32037338867187C629.3462045898438,113.71367338867188,630.8692045898438,111.31264338867187,632.5092045898438,108.87501338867187C633.0832045898437,108.00618338867187,633.6572045898438,107.13735338867187,634.2482045898437,106.24220338867187C637.2822045898438,102.75243738867188,640.7812045898438,101.02027338867188,645.1972045898438,103.00001238867188Z" fill="#94E900" fill-opacity="1" style="mix-blend-mode:passthrough"/></g><g><path d="M141.19720458984375,38.99996879882812C140.57820458984375,42.52186879882812,139.95120458984377,46.042268798828125,139.32220458984375,49.56246879882812C139.14820458984374,50.553168798828125,138.97420458984374,51.543768798828125,138.79520458984376,52.56446879882812C137.85320458984376,57.81606879882813,136.78420458984374,62.90456879882812,135.19720458984375,67.99996879882812C133.07220458984375,68.81246879882812,133.07220458984375,68.81246879882812,130.19720458984375,68.99996879882812C128.78420458984374,67.85616879882812,127.38020458984376,66.69836879882813,126.04120458984374,65.46876879882812C115.82390458984375,57.32976879882813,99.63120458984375,54.29216879882813,86.86520458984376,55.24996879882812C80.44620458984375,56.07166879882813,75.44620458984375,57.150768798828125,70.19720458984375,60.99996879882813C67.84670458984375,64.52576879882812,67.53320458984375,65.85016879882812,68.19720458984375,69.99996879882812C72.30210458984375,74.03446879882813,75.68890458984376,75.83086879882813,81.29100458984375,77.42966879882812C81.95950458984376,77.62796879882814,82.62810458984374,77.82626879882812,83.31700458984375,78.03056879882813C85.43990458984375,78.65946879882813,87.56750458984375,79.26936879882813,89.69720458984375,79.87496879882812C121.22220458984376,88.86226879882813,121.22220458984376,88.86226879882813,128.49820458984374,101.20706879882812C132.51120458984374,109.74346879882812,132.50220458984376,118.92526879882813,129.57220458984375,127.81246879882812C125.40520458984375,137.85276879882812,117.62710458984375,146.56476879882814,107.62690458984375,151.09776879882813C79.13430458984375,161.67976879882812,45.88340458984375,160.4457687988281,18.19720458984375,147.99976879882814C18.73767058984375,140.81276879882813,19.91024458984375,133.94676879882815,21.57220458984375,126.93746879882812C21.88544458984375,125.51536879882812,21.88544458984375,125.51536879882812,22.20501458984375,124.06446879882813C22.52212458984375,122.71576879882812,22.52212458984375,122.71576879882812,22.84564458984375,121.33986879882812C23.12673458984375,120.12346879882813,23.12673458984375,120.12346879882813,23.41351458984375,118.88256879882813C23.67213458984375,118.26136879882813,23.930744589843748,117.64006879882812,24.19720458984375,116.99996879882812C25.68220458984375,116.50496879882813,25.68220458984375,116.50496879882813,27.19720458984375,115.99996879882812C30.42150458984375,117.61216879882812,33.32770458984375,119.38486879882812,36.26750458984375,121.46486879882812C49.97480458984375,131.1187687988281,66.47900458984375,133.71476879882812,82.97840458984375,131.6527687988281C87.20610458984375,130.8137687988281,90.71320458984376,129.63976879882813,94.19720458984375,126.99996879882812C96.65130458984375,123.31886879882812,96.43010458984375,121.34706879882812,96.19720458984375,116.99996879882812C95.86720458984375,116.00996879882813,95.53720458984375,115.01996879882813,95.19720458984375,113.99996879882812C93.04380458984375,112.87516879882813,93.04380458984375,112.87516879882813,90.19720458984375,111.99996879882812C89.60120458984375,111.79566879882813,89.00510458984375,111.59136879882813,88.39100458984375,111.38086879882813C86.26830458984375,110.65676879882812,84.13960458984376,109.95266879882813,82.00970458984375,109.24996879882812C81.22450458984375,108.98756879882812,80.43930458984374,108.72516879882812,79.63030458984375,108.45486879882813C75.57700458984375,107.10276879882812,71.51770458984376,105.78166879882812,67.43550458984376,104.51956879882812C42.442804589843746,96.70226879882813,42.442804589843746,96.70226879882813,36.19720458984375,84.99996879882812C32.56840458984375,77.57556879882813,31.76730458984375,69.21376879882813,33.95890458984375,61.222668798828124C38.81240458984375,48.46546879882813,47.11250458984375,41.16026879882813,59.40030458984375,35.578128798828125C81.56930458984375,26.116058798828124,120.28320458984375,25.175708798828126,141.19720458984375,38.99996879882812Z" fill="#A1E000" fill-opacity="1" style="mix-blend-mode:passthrough"/></g><g><path d="M493.9432998046875,66.203135C501.5728998046875,72.285625,506.3567998046875,78.560025,507.6227998046875,88.261725C509.1857998046875,105.674725,505.9897998046875,122.523725,495.1620998046875,136.656225C485.22899980468753,148.288725,471.6446998046875,156.57072499999998,456.1971998046875,158.000025C440.9173998046875,158.964625,426.4341998046875,158.348825,414.1971998046875,148.000025C408.7723298046875,142.988325,405.8836898046875,138.177625,404.1972298046875,131.000025C403.9703518046875,130.051225,403.7434768046875,129.102525,403.5097278046875,128.125025C402.1953428046875,114.981225,404.8192898046875,102.404125,409.1972298046875,90.000025C409.8572298046875,90.000025,410.5172298046875,90.000025,411.1972298046875,90.000025C412.2724798046875,87.347725,413.2917998046875,84.716325,414.1971998046875,82.000025C414.8571998046875,82.000025,415.5171998046875,82.000025,416.1971998046875,82.000025C416.1971998046875,81.340025,416.1971998046875,80.680025,416.1971998046875,80.000025C416.8571998046875,80.000025,417.5171998046875,80.000025,418.1971998046875,80.000025C418.5568998046875,79.129925,418.5568998046875,79.129925,418.9237998046875,78.242225C423.9374998046875,69.414325,436.0466998046875,64.084285,445.25189980468747,60.964855C460.7618998046875,56.806925,480.2716998046875,57.103725,493.9432998046875,66.203135ZM445.1971998046875,88.000025C437.1874998046875,99.990625,435.1555998046875,110.737825,436.1971998046875,125.000025C437.0293998046875,128.75392499999998,438.3502998046875,131.206025,441.1971998046875,133.875025C445.3975998046875,136.237725,449.4860998046875,136.582525,454.1971998046875,136.000025C462.2104998046875,133.608225,467.4609998046875,127.379125,471.5096998046875,120.312525C475.6707998046875,111.22252499999999,477.0176998046875,98.28842499999999,474.1346998046875,88.625025C472.5816998046875,85.023125,470.6086998046875,83.283725,467.0838998046875,81.621125C458.9877998046875,78.95592500000001,451.1436998046875,82.557625,445.1971998046875,88.000025Z" fill="#C9C8C9" fill-opacity="1" style="mix-blend-mode:passthrough"/></g><g><path d="M148.19720458984375,62C158.75720458984375,62,169.31720458984375,62,180.19720458984375,62C181.36980458984374,69.03551,182.52520458984375,76.02590000000001,183.45110458984374,83.0898C183.55690458984375,83.8823,183.66270458984374,84.6747,183.77160458984375,85.4911C184.10280458984374,87.973,184.43160458984374,90.4552,184.75970458984375,92.9375C185.09150458984374,95.4448,185.42400458984375,97.952,185.75850458984377,100.4589C185.96480458984377,102.00569999999999,186.16970458984375,103.55279999999999,186.37290458984376,105.1001C186.86150458984375,108.7641,187.41650458984375,112.3863,188.19720458984375,116C188.85720458984375,116,189.51720458984374,116,190.19720458984375,116C190.31350458984375,115.42349999999999,190.42970458984377,114.8469,190.54950458984376,114.2529C191.24730458984374,111.8257,192.21560458984374,110.08619999999999,193.56050458984376,107.9531C194.03550458984375,107.19,194.51050458984375,106.4269,194.99990458984377,105.6406C195.49820458984374,104.8517,195.99640458984373,104.06280000000001,196.50970458984375,103.25C199.65060458984374,98.2578,202.61810458984377,93.2992,205.19400458984376,87.99170000000001C207.01710458984377,84.3721,209.11990458984377,80.9154,211.19720458984375,77.4375C212.05180458984375,75.9989,212.90600458984375,74.5601,213.75970458984375,73.1211C214.13220458984375,72.4965,214.50480458984373,71.87183,214.88860458984374,71.22827C216.68570458984374,68.1682,218.43650458984376,65.08117,220.19720458984375,62C231.08720458984374,62,241.97720458984375,62,253.19720458984375,62C252.34120458984376,66.2786,251.93820458984374,67.82209,249.67720458984377,71.19531C248.89520458984373,72.3777,248.89520458984373,72.3777,248.09720458984376,73.584C247.53220458984373,74.4225,246.96720458984373,75.2611,246.38520458984374,76.125C245.18920458984377,77.9289,243.99520458984375,79.7336,242.80220458984377,81.5391C242.19720458984375,82.452,241.59220458984373,83.365,240.96820458984377,84.3057C238.32010458984377,88.3344,235.75650458984376,92.4145,233.19720458984375,96.5C228.55380458984376,103.8905,223.81910458984373,111.2173,219.04830458984375,118.5261C214.92150458984375,124.8589,210.87840458984374,131.2407,206.85960458984374,137.6423C202.23880458984377,144.9808,197.48020458984377,152.2265,192.72230458984376,159.47660000000002C188.17660458984375,166.43,183.78310458984376,173.463,179.52120458984376,180.594C176.39390458984374,185.803,176.39390458984374,185.803,174.19720458984375,188C167.23910458984375,189.305,160.25420458984374,189.115,153.19720458984375,189.062C152.04090458984376,189.058,150.88462458984375,189.053,149.69329458984376,189.049C146.86121458984374,189.037,144.02923458984375,189.02100000000002,141.19720458984375,189C141.19720458984375,184.446,141.99616258984375,183.215,144.38470458984375,179.438C144.72622458984375,178.887,145.06774458984376,178.336,145.41961458984375,177.768C147.69323458984374,174.161,150.12555458984374,170.704,152.65810458984376,167.273C153.25220458984376,166.453,153.84620458984375,165.63299999999998,154.45820458984375,164.787C155.63800458984375,163.167,156.84040458984376,161.56189999999998,158.06710458984375,159.97629999999998C160.96030458984376,155.9794,162.64080458984375,153.18470000000002,162.19330458984376,148.168C161.89120458984374,146.4398,161.55740458984374,144.71699999999998,161.19720458984375,143C160.88690458984374,141.0513,160.57970458984374,139.102,160.27530458984376,137.1523C159.39500458984375,132.0514,158.47490458984376,126.9578,157.54750458984375,121.8652C155.34750458984374,109.7619,153.27450458984376,97.6406,151.29280458984374,85.4997C151.02162458984375,83.8387,150.74941458984375,82.1778,150.47613458984375,80.5171C150.09195458984374,78.1786,149.71221458984374,75.8395,149.33392458984375,73.5C149.21854458984376,72.8002,149.10317458984375,72.1003,148.98429458984376,71.37926C148.47282458984375,68.18229,148.19720458984375,65.25243,148.19720458984375,62Z" fill="#A1E000" fill-opacity="1" style="mix-blend-mode:passthrough"/></g><g><path d="M384.1346771484375,60.25000338867188C384.9137771484375,60.38060338867187,385.6928771484375,60.51120338867187,386.4955771484375,60.64575338867188C392.3959771484375,61.703653388671874,397.8052771484375,63.33115338867187,403.1971771484375,66.00000338867187C402.7257771484375,75.74222338867187,399.9424771484375,84.70062338867187,397.1971771484375,94.00002338867188C394.3377771484375,94.13672338867187,394.3377771484375,94.13672338867187,391.1971771484375,94.00002338867188C389.5071771484375,92.35702338867188,387.84497714843747,90.68532338867188,386.1971771484375,89.00002338867188C378.2324771484375,83.16452338867188,369.65357714843753,82.91902338867187,360.1971771484375,84.00002338867188C356.9014771484375,84.95882338867187,354.1349771484375,86.25012338867188,351.1971771484375,88.00002338867188C350.4817771484375,88.33642338867188,349.7663771484375,88.67292338867188,349.0291771484375,89.01952338867187C346.6285771484375,90.30432338867188,346.2587771484375,91.52292338867187,345.1971771484375,94.00002338867188C344.7176771484375,94.75152338867187,344.2381771484375,95.50302338867188,343.7440771484375,96.27732338867187C339.3946771484375,103.93272338867187,338.0020771484375,113.53262338867188,339.5955771484375,122.15622338867188C340.6865771484375,125.95322338867187,342.2649771484375,128.54832338867186,345.3846771484375,131.00002338867188C352.2776771484375,134.75862338867188,361.7099771484375,134.06672338867187,369.1385771484375,132.30082338867186C374.3209771484375,130.37872338867186,378.7003771484375,127.50042338867188,383.0916771484375,124.17192338867187C385.6279771484375,122.76022338867188,387.3384771484375,122.78052338867187,390.1971771484375,123.00002338867188C392.7795771484375,130.74712338867187,388.4575771484375,142.7658233886719,385.1971771484375,150.00002338867188C381.4487771484375,153.47922338867187,378.1842771484375,154.3079233886719,373.1971771484375,155.00002338867188C372.0834771484375,155.41252338867187,370.9696771484375,155.82502338867187,369.8221771484375,156.25002338867188C353.5993771484375,159.60622338867188,335.6746771484375,159.14922338867189,321.3221771484375,150.18752338867188C312.5555071484375,143.84632338867186,308.0735971484375,135.95352338867187,305.8221891484375,125.43752338867188C303.8375071484375,111.07132338867189,307.6033771484375,95.87822338867187,316.2830771484375,84.19142338867188C318.4902771484375,81.66442338867188,320.7689771484375,79.31782338867188,323.1971771484375,77.00002338867188C323.7269771484375,76.46372338867187,324.2567771484375,75.92752338867187,324.8026771484375,75.37502338867188C340.4219771484375,60.45505338867188,363.4769771484375,56.708493388671876,384.1346771484375,60.25000338867188Z" fill="#A1E000" fill-opacity="1" style="mix-blend-mode:passthrough"/></g><g><path d="M667.8222045898438,27.37499412109375C672.9893045898438,30.24124412109375,678.1145045898437,33.71654412109375,682.1972045898438,38.00002412109375C682.1972045898438,39.32002412109375,682.1972045898438,40.64002412109375,682.1972045898438,42.00002412109375C681.0298045898437,43.137724121093754,679.8572045898437,44.270624121093746,678.6586045898438,45.37552412109375C675.5333045898437,48.849624121093754,673.7043045898438,53.28392412109375,671.6347045898438,57.43752412109375C670.6991045898437,59.29192412109375,669.7604045898438,61.14492412109375,668.8183045898437,62.99612412109375C668.3773045898438,63.86732412109375,667.9363045898438,64.73862412109375,667.4819045898438,65.63622412109375C666.3693045898438,67.68342412109375,665.1829045898437,69.48402412109375,663.7949045898438,71.34762412109376C661.9779045898438,73.84532412109375,661.9779045898438,73.84532412109375,662.2050045898437,76.53122412109374C663.4334045898438,79.58762412109374,665.0681045898438,81.88652412109374,667.0722045898438,84.50002412109376C674.1446045898438,93.79072412109375,674.1446045898438,93.79072412109375,674.3222045898438,97.87502412109374C672.7360045898438,102.28102412109375,669.8659045898437,105.13622412109375,666.1972045898438,108.00002412109374C665.5372045898438,108.00002412109374,664.8772045898438,108.00002412109374,664.1972045898438,108.00002412109374C664.1972045898438,108.66002412109376,664.1972045898438,109.32002412109375,664.1972045898438,110.00002412109374C663.5372045898438,110.00002412109374,662.8772045898438,110.00002412109374,662.1972045898438,110.00002412109374C662.1972045898438,110.66002412109376,662.1972045898438,111.32002412109375,662.1972045898438,112.00002412109374C659.3035045898438,113.44682412109375,657.3955045898438,113.43102412109376,654.1972045898438,113.00002412109374C652.2206045898438,110.55072412109375,652.2206045898438,110.55072412109375,650.5722045898438,107.31252412109374C648.4138045898437,103.16282412109375,646.2315045898438,99.57092412109375,643.1972045898438,96.00002412109374C639.9016045898437,96.57282412109375,638.5015045898438,97.43422412109375,636.3222045898438,99.93752412109374C628.9407045898438,107.65242412109374,619.3774045898438,113.52942412109375,610.1855045898437,118.84372412109374C608.4845045898437,119.83292412109375,606.8344045898438,120.90852412109375,605.1972045898438,122.00002412109374C598.6861045898437,121.75882412109375,595.7967045898438,119.70702412109375,591.4042345898438,115.13282412109375C588.2227645898438,111.65612412109375,585.5006145898437,108.63432412109375,584.1972045898438,104.00002412109374C587.6329245898437,101.46842412109375,590.7332245898438,99.73782412109375,594.7597045898438,98.31252412109374C604.9568045898437,94.43452412109374,616.2497045898438,86.37792412109374,623.1972045898438,78.00002412109376C623.0088045898437,73.36082412109374,620.7549045898437,70.82012412109376,617.8222045898438,67.37502412109376C617.0307045898437,66.43402412109376,616.2392045898438,65.49292412109375,615.4238045898437,64.52342412109374C613.3425045898438,62.07892412109375,613.3425045898438,62.07892412109375,611.4238045898437,60.35932412109375C610.1972045898438,59.00002412109375,610.1972045898438,59.00002412109375,609.9472045898438,55.87502412109375C611.0024045898438,50.326524121093755,615.7984045898437,46.17802412109375,620.1972045898438,43.00002412109375C623.3456045898438,42.15232412109375,623.3456045898438,42.15232412109375,626.1972045898438,42.00002412109375C630.4517045898438,44.509024121093745,633.4139045898437,48.43622412109375,636.5488045898437,52.19532412109375C638.2635045898437,54.21772412109375,638.2635045898437,54.21772412109375,641.1972045898438,56.00002412109375C643.2684045898437,55.98902412109375,643.2684045898437,55.98902412109375,645.1972045898438,55.00002412109375C646.6862045898438,53.28812412109375,646.6862045898438,53.28812412109375,647.8847045898438,51.00002412109375C648.3913045898438,50.11312412109375,648.8979045898437,49.22622412109375,649.4199045898438,48.31252412109375C650.7886045898438,45.76152412109375,652.1254045898438,43.202124121093746,653.4433045898437,40.62502412109375C653.8362045898438,39.86312412109375,654.2291045898437,39.101324121093754,654.6340045898437,38.316424121093746C655.4177045898438,36.78852412109375,656.1900045898437,35.25470412109375,656.9499045898438,33.71483412109375C657.3125045898438,33.00456412109375,657.6751045898437,32.29429412109375,658.0488045898437,31.56249412109375C658.3667045898437,30.92440412109375,658.6846045898437,30.28632412109375,659.0121045898437,29.62890412109375C661.7206045898438,25.90609212109375,663.6149045898437,25.77910712109375,667.8222045898438,27.37499412109375Z" fill="#A1E000" fill-opacity="1" style="mix-blend-mode:passthrough"/></g><g><path d="M603.1972045898438,61.999997359375C603.6519045898438,68.678913359375,601.9630045898438,74.530593359375,600.1972045898438,80.937493359375C599.9110045898437,82.00289335937501,599.6249045898437,83.068293359375,599.3300045898437,84.165993359375C598.6268045898437,86.779593359375,597.9157045898437,89.390593359375,597.1972045898438,91.999993359375C596.4369045898437,91.989493359375,595.6766045898437,91.979093359375,594.8932045898438,91.968293359375C591.3904045898438,91.92619335937499,587.8877045898438,91.900493359375,584.3847045898438,91.874993359375C583.1891045898437,91.85819335937501,581.9935045898437,91.841493359375,580.7617045898437,91.824193359375C573.3392045898438,91.783793359375,566.4404045898438,92.355393359375,559.1972045898438,93.999993359375C559.1108045898437,95.134393359375,559.0245045898438,96.268793359375,558.9355045898437,97.437493359375C558.0837045898437,105.075093359375,556.1340045898437,112.52889335937499,554.3847045898438,119.999993359375C554.0372045898438,121.50119335937501,553.6902045898438,123.002493359375,553.3437045898438,124.503893359375C550.9914045898438,134.67619335937502,548.5924045898438,144.837693359375,546.1972045898438,154.999993359375C535.6372045898438,154.999993359375,525.0772045898437,154.999993359375,514.1972045898438,154.999993359375C515.4066645898438,148.34799335937498,516.6287345898437,141.791893359375,518.1683945898437,135.22389335937498C518.3540045898437,134.42249335937498,518.5396145898437,133.62109335937498,518.7308545898437,132.795393359375C519.3343545898438,130.19249335937502,519.9415145898438,127.590393359375,520.5487645898437,124.988293359375C520.9721245898437,123.16559335937501,521.3952445898437,121.342893359375,521.8181445898438,119.520093359375C522.9238545898437,114.756993359375,524.0326945898438,109.99469335937499,525.1422045898438,105.232593359375C526.2770045898437,100.359293359375,527.4089045898437,95.48529335937499,528.5410045898437,90.611293359375C530.7568045898438,81.073493359375,532.9762045898437,71.536593359375,535.1972045898438,61.999997359375C545.7572045898437,61.999997359375,556.3172045898438,61.999997359375,567.1972045898438,61.999997359375C566.8672045898437,65.299993359375,566.5372045898438,68.599993359375,566.1972045898438,71.999993359375C567.2130045898438,71.373493359375,568.2288045898438,70.74702335937499,569.2753045898437,70.101563359375C580.5824045898437,63.313733359375,589.8351045898437,59.772983359375,603.1972045898438,61.999997359375Z" fill="#C9C8C9" fill-opacity="1" style="mix-blend-mode:passthrough"/></g><g><path d="M1.19718,0C31.5572,0,61.9172,0,93.1972,0C91.9385,5.03459,89.5599,8.78189,86.8847,13.1875C86.3981,14.0196,85.9114,14.8517,85.4101,15.709C84.9312,16.4998,84.4523,17.2907,83.9589,18.1055C83.5254,18.8289,83.0918,19.5523,82.6452,20.2976C80.8452,22.4138,79.898,22.51,77.1972,23C75.5748,23.0893,73.9492,23.1279,72.3244,23.1294C70.8775,23.1341,70.8775,23.1341,69.4014,23.1389C68.3659,23.1369,67.3305,23.1349,66.2636,23.1328C64.6585,23.1342,64.6585,23.1342,63.0209,23.1357C60.7589,23.1364,58.497,23.1345,56.235,23.1304C52.7764,23.125,49.3179,23.1303,45.8593,23.1367C43.6607,23.1361,41.4622,23.1348,39.2636,23.1328C38.2301,23.1348,37.1967,23.1369,36.1319,23.1389C34.6803,23.1342,34.6803,23.1342,33.1994,23.1294C31.9284,23.1282,31.9284,23.1282,30.6318,23.127C28.0718,22.9935,25.6953,22.5618,23.1972,22C23.2194,22.6713,23.2416,23.3426,23.2645,24.0342C23.4863,31.0419,23.6368,38.0487,23.7465,45.0591C23.7967,47.6725,23.8649,50.2855,23.9516,52.8979C24.0734,56.6618,24.1297,60.422,24.1737,64.1875C24.2254,65.3493,24.277,66.511,24.3302,67.708C24.3335,72.5508,24.3241,75.7082,21.0582,79.4519C18.5226,81.4949,15.9457,83.2582,13.1972,85C11.7264,86.1298,10.2655,87.2728,8.82218,88.4375C6.30188,90.4055,4.34809,91.3962,1.19718,92C-0.400216,88.8052,0.0589308,85.3427,0.0677904,81.8342C0.0651619,80.5682,0.0651619,80.5682,0.0624803,79.2766C0.0580673,76.4773,0.0609982,73.6781,0.0643724,70.8789C0.0636991,68.9384,0.062729,66.9979,0.0614733,65.0574C0.059997,60.9861,0.0621483,56.9148,0.0668138,52.8435C0.0725073,47.62,0.0692341,42.3965,0.0632414,37.1729C0.0596306,33.1642,0.0607767,29.1554,0.0633692,25.1466C0.0640372,23.2204,0.0632143,21.2943,0.0608896,19.3681C0.0583551,16.6771,0.0622151,13.9862,0.0677904,11.2952C0.0657662,10.4956,0.0637419,9.69599,0.0616564,8.87218C0.0740445,5.6508,0.170978,3.07862,1.19718,0Z" fill="#94E900" fill-opacity="1" style="mix-blend-mode:passthrough"/></g><g><path d="M268.19720458984375,62C278.42720458984377,62,288.65720458984373,62,299.19720458984375,62C295.96800458984376,79.6598,292.1203045898437,97.00970000000001,287.8103045898438,114.4242C285.7048045898438,122.9542,283.70150458984375,131.5082,281.69720458984375,140.0625C281.34330458984374,141.571,280.98940458984373,143.07940000000002,280.63540458984374,144.5879C279.82150458984376,148.0583,279.0089045898437,151.5291,278.19720458984375,155C274.0028045898438,155.8163,270.18900458984376,156.06889999999999,265.92380458984377,155.8789C264.77010458984375,155.8306,263.61630458984376,155.7822,262.42770458984376,155.73239999999998C261.23790458984377,155.6763,260.0481045898438,155.6203,258.82220458984375,155.5625C257.6092045898437,155.5103,256.39620458984376,155.4581,255.14642458984375,155.4043C252.16305458984374,155.2751,249.18007458984374,155.1402,246.19720458984375,155C248.27047458984376,144.4269,250.48322458984376,133.8923,252.82220458984375,123.375C252.99028458984375,122.6181,253.15836458984376,121.8611,253.33154458984376,121.0813C256.12168458984377,108.5452,259.05070458984375,96.0447,262.07220458984375,83.5625C262.2650045898437,82.7613,262.45780458984376,81.9602,262.65650458984373,81.1347C263.2048045898438,78.8609,263.75860458984374,76.58840000000001,264.3144045898438,74.3164C264.47550458984375,73.6472,264.63670458984376,72.9779,264.80270458984376,72.2884C265.6962045898438,68.67125,266.80070458984375,65.49113,268.19720458984375,62Z" fill="#C9C8C9" fill-opacity="1" style="mix-blend-mode:passthrough"/></g><g><path d="M285.01360458984374,25.769544720859376C286.1074045898437,25.771478310859376,287.20110458984374,25.773411910859377,288.32810458984375,25.775404100859376C289.46050458984377,25.787650180859377,290.5929045898437,25.799896280859375,291.75970458984375,25.812513480859376C293.46420458984375,25.813480280859373,293.46420458984375,25.813480280859373,295.20310458984375,25.814466580859374C304.37730458984373,25.863179480859376,304.37730458984373,25.863179480859376,308.19720458984375,27.000010380859376C307.16440458984374,33.063260380859376,306.0234045898437,39.105590380859375,304.75970458984375,45.12499038085937C304.53410458984376,46.220690380859374,304.3085045898438,47.316390380859374,304.07610458984374,48.445290380859376C303.7861045898438,49.288390380859376,303.4960045898438,50.13139038085937,303.19720458984375,50.99999038085937C300.21560458984374,51.993890380859376,298.23140458984375,52.12899038085938,295.11910458984374,52.132790380859376C293.6244045898437,52.13479038085937,293.6244045898437,52.13479038085937,292.0995045898438,52.13669038085938C291.05930458984375,52.13289038085938,290.01900458984375,52.12899038085938,288.94720458984375,52.12499038085937C287.9224045898437,52.128890380859374,286.89760458984375,52.132790380859376,285.84170458984374,52.13669038085938C280.5191045898438,52.12989038085938,275.4400345898438,51.933090380859376,270.19720458984375,50.99999038085937C270.5725995898438,45.265490380859376,271.33690458984375,39.63929038085938,272.44720458984375,34.00001038085938C272.65861458984375,32.90689038085937,272.8700145898438,31.813760380859375,273.08782458984376,30.687510380859376C274.19720458984375,28.000010380859376,274.19720458984375,28.000010380859376,276.40301458984374,26.846450380859373C279.42399458984374,25.931313380859375,281.8617045898437,25.756538180859376,285.01360458984374,25.769544720859376Z" fill="#C9C8C9" fill-opacity="1" style="mix-blend-mode:passthrough"/></g></g></svg>